<svg width="16" height="10" viewBox="0 0 16 10" fill="none" xmlns="http://www.w3.org/2000/svg">
<path fill-rule="evenodd" clip-rule="evenodd" d="M14.9376 0.14025C14.2214 -0.0676024 13.4554 0.339381 13.2267 1.04927L11.8435 5.34345L9.90752 1.40267C9.89412 1.3754 9.87983 1.34882 9.86469 1.32294C9.73365 0.98136 9.44634 0.70563 9.06093 0.600731C8.40641 0.422589 7.71679 0.804576 7.52062 1.45392L6.44077 5.02838L4.62169 2.36962C4.56655 1.99829 4.31475 1.67013 3.93085 1.53026C3.59587 1.4082 3.23457 1.45657 2.94679 1.63095C2.90865 1.64882 2.87122 1.66899 2.8347 1.6915C2.52276 1.88378 2.34848 2.20276 2.33589 2.53522L0.745738 6.46717C0.51745 7.03165 0.796169 7.65824 1.36828 7.86669C1.94038 8.07514 2.58923 7.78651 2.81752 7.22203L3.73812 4.94568L5.80774 7.97063C5.93752 8.31546 6.22612 8.59425 6.61417 8.69987C7.2687 8.87801 7.95832 8.49603 8.15449 7.84668L8.9915 5.07603L10.8677 8.89504C11.1137 9.39571 11.6629 9.66673 12.1946 9.59141C12.8188 9.63569 13.4222 9.24771 13.6207 8.6315L15.8205 1.80198C16.0492 1.09208 15.6539 0.348103 14.9376 0.14025Z" fill="#1F1F1F"/>
</svg>
