<svg width="150" height="42" viewBox="0 0 150 42" fill="none" xmlns="http://www.w3.org/2000/svg">
<g filter="url(#filter0_d_321_163)">
<path d="M152.006 41.0767L5.56867 43.0834L15.9667 37.9723C28.6688 31.7287 40.2248 23.3842 50.147 13.2909C59.1645 4.11791 71.4886 -1.04867 84.3517 -1.04859L154.513 -1.04818L152.006 41.0767Z" fill="url(#paint0_linear_321_163)" fill-opacity="0.22" shape-rendering="crispEdges"/>
</g>
<g filter="url(#filter1_d_321_163)">
<path d="M190.656 -4.74561L156.189 20.8402L150.574 24.5324C134.332 35.2107 126.018 54.5419 129.438 73.6762L95.5669 65.1236C82.0944 61.7218 75.09 46.8562 81.0439 34.301C83.6279 28.852 87.3269 24.0061 91.9015 20.0767L94.5394 17.8109C112.529 2.3588 135.589 -5.90935 159.298 -5.4083L190.656 -4.74561Z" fill="url(#paint1_linear_321_163)" fill-opacity="0.22" shape-rendering="crispEdges"/>
</g>
<defs>
<filter id="filter0_d_321_163" x="0.553878" y="-5.0608" width="158.974" height="54.1628" filterUnits="userSpaceOnUse" color-interpolation-filters="sRGB">
<feFlood flood-opacity="0" result="BackgroundImageFix"/>
<feColorMatrix in="SourceAlpha" type="matrix" values="0 0 0 0 0 0 0 0 0 0 0 0 0 0 0 0 0 0 127 0" result="hardAlpha"/>
<feOffset dy="1.00299"/>
<feGaussianBlur stdDeviation="2.50748"/>
<feComposite in2="hardAlpha" operator="out"/>
<feColorMatrix type="matrix" values="0 0 0 0 0.284722 0 0 0 0 0.650026 0 0 0 0 0.854167 0 0 0 0.2 0"/>
<feBlend mode="normal" in2="BackgroundImageFix" result="effect1_dropShadow_321_163"/>
<feBlend mode="normal" in="SourceGraphic" in2="effect1_dropShadow_321_163" result="shape"/>
</filter>
<filter id="filter1_d_321_163" x="74.8938" y="-9.44166" width="121.78" height="89.1354" filterUnits="userSpaceOnUse" color-interpolation-filters="sRGB">
<feFlood flood-opacity="0" result="BackgroundImageFix"/>
<feColorMatrix in="SourceAlpha" type="matrix" values="0 0 0 0 0 0 0 0 0 0 0 0 0 0 0 0 0 0 127 0" result="hardAlpha"/>
<feOffset dx="1.00299" dy="1.00299"/>
<feGaussianBlur stdDeviation="2.50748"/>
<feComposite in2="hardAlpha" operator="out"/>
<feColorMatrix type="matrix" values="0 0 0 0 0.284722 0 0 0 0 0.650026 0 0 0 0 0.854167 0 0 0 0.2 0"/>
<feBlend mode="normal" in2="BackgroundImageFix" result="effect1_dropShadow_321_163"/>
<feBlend mode="normal" in="SourceGraphic" in2="effect1_dropShadow_321_163" result="shape"/>
</filter>
<linearGradient id="paint0_linear_321_163" x1="54.2139" y1="19.5131" x2="139.97" y2="38.0685" gradientUnits="userSpaceOnUse">
<stop stop-color="white"/>
<stop offset="1" stop-color="white" stop-opacity="0"/>
</linearGradient>
<linearGradient id="paint1_linear_321_163" x1="83.6112" y1="34.2568" x2="143.747" y2="38.8777" gradientUnits="userSpaceOnUse">
<stop stop-color="white"/>
<stop offset="1" stop-color="white" stop-opacity="0"/>
</linearGradient>
</defs>
</svg>
