<?xml version="1.0" encoding="UTF-8"?>
<svg width="18px" height="15px" viewBox="0 0 18 15" version="1.1" xmlns="http://www.w3.org/2000/svg" xmlns:xlink="http://www.w3.org/1999/xlink">
    <title>形状结合</title>
    <g id="页面-1" stroke="none" stroke-width="1" fill="none" fill-rule="evenodd">
        <g id="Demo1" transform="translate(-1964.000000, -1031.000000)" fill="#000000" fill-rule="nonzero">
            <g id="Controller" transform="translate(1928.000000, 860.000000)">
                <g id="Starling" transform="translate(11.000000, 149.000000)">
                    <g id="编组-3" transform="translate(18.000000, 14.000000)">
                        <path d="M17.8098,21.8534 L17.646,22.2314 L15.4536,22.2314 L15.6048,21.8534 L17.8098,21.8534 Z M24.1602,21.8534 L24.3114,22.2314 L22.1316,22.2314 L21.9804,21.8534 L24.1602,21.8534 Z M23.6814,20.7068 L23.8326,21.0848 L15.9324,21.0848 L16.0836,20.7068 L23.6814,20.7068 Z M18.7548,19.5602 L18.7296,19.598 L21.0354,19.598 L21.0228,19.5602 L23.2026,19.5602 L23.3538,19.9382 L16.4112,19.9382 L16.5624,19.5602 L18.7548,19.5602 Z M14.2198,8.7516 L14.623,9.9108 L19.159,9.9108 L19.159,11.1708 L17.2942,11.1708 L17.2446859,11.5395469 C17.1165203,12.3857156 16.899925,13.1322 16.5949,13.779 C16.2463,14.5182 15.7444,15.165 15.0892,15.7194 C15.6436,15.9126 16.2799,16.0743 16.9981,16.2045 C17.2816708,16.2559076 17.5832476,16.3024045 17.9028302,16.3439907 L17.9988,16.1078 L21.7788,16.1078 L21.93,16.4858 L19.3118,16.4856 L19.4992,16.5006 L19.1668,17.2536 L19.7124,17.2544 L19.5486,17.6324 L18.9998,17.6316 L18.6618,18.4006 L19.2336,18.401 L19.0698,18.779 L16.89,18.779 L17.0412,18.401 L18.551537,18.4013797 C17.4351017,18.2438686 16.4510893,18.0428754 15.5995,17.7984 C14.7217,17.5464 13.9468,17.2314 13.2748,16.8534 C12.628,17.1474 11.8909,17.4078 11.0635,17.6346 C10.2361,17.8614 9.2974,18.063 8.2474,18.2394 L8.2474,18.2394 L7.2898,17.1684 L7.7441,17.058675 C8.48843333,16.874925 9.1686,16.6868 9.7846,16.4943 C10.5238,16.2633 11.1832,16.0092 11.7628,15.732 C11.1748,15.1608 10.6981,14.4993 10.3327,13.7475 C9.9673,12.9957 9.6712,12.1368 9.4444,11.1708 L9.4444,11.1708 L7.441,11.1708 L7.441,9.9108 L12.418,9.9108 L12.0148,8.7516 L14.2198,8.7516 Z M22.7238,18.401 L22.8876,18.779 L20.7078,18.779 L20.544,18.401 L22.7238,18.401 Z M22.245,17.2544 L22.4088,17.6324 L20.229,17.6324 L20.0778,17.2544 L22.245,17.2544 Z M21.3,14.9612 L21.4512,15.3392 L18.3138,15.3392 L18.4776,14.9612 L21.3,14.9612 Z M15.0892,11.1708 L10.8178,11.1708 L10.987025,11.54985 C11.2711083,12.16935 11.5654,12.7276 11.8699,13.2246 C12.2353,13.821 12.7036,14.3376 13.2748,14.7744 C13.7956,14.346 14.203,13.842 14.497,13.2624 C14.791,12.6828 14.9884,11.9856 15.0892,11.1708 L15.0892,11.1708 Z" id="形状结合"></path>
                    </g>
                </g>
            </g>
        </g>
    </g>
</svg>