<svg width="48" height="48" viewBox="0 0 48 48" fill="none" xmlns="http://www.w3.org/2000/svg">
  <path fill-rule="evenodd" clip-rule="evenodd"
    d="M18.9999 7C15.6862 7 12.9999 9.68629 12.9999 13C12.9999 16.3137 15.6862 19 18.9999 19C22.3136 19 24.9999 16.3137 24.9999 13C24.9999 9.68629 22.3136 7 18.9999 7ZM8.9999 13C8.9999 7.47715 13.4771 3 18.9999 3C24.5228 3 28.9999 7.47715 28.9999 13C28.9999 18.5228 24.5228 23 18.9999 23C13.4771 23 8.9999 18.5228 8.9999 13ZM13.9159 30.738C10.0883 32.2352 6.70127 35.5144 5.19411 40.9681C5.047 41.5004 4.51432 41.8408 3.97551 41.7195L2.0243 41.2805C1.48549 41.1592 1.14514 40.6222 1.28805 40.0887C3.09315 33.3505 7.37401 29.0018 12.4589 27.0129C17.4031 25.0789 23.0153 25.4139 27.6381 27.7937C28.1292 28.0465 28.287 28.662 28.0069 29.1381L26.9929 30.8619C26.7129 31.338 26.1013 31.4934 25.6062 31.2486C22.0356 29.4832 17.7123 29.2531 13.9159 30.738ZM39.832 28.4453C40.2915 28.1389 40.9124 28.2631 41.2187 28.7227L44.664 33.8906C45.0731 34.5043 45.1113 35.2934 44.7633 35.9437C44.4152 36.594 43.7375 37 42.9999 37H27.9999C27.4476 37 26.9999 36.5523 26.9999 36V34C26.9999 33.4477 27.4476 33 27.9999 33H39.2629L37.8905 30.9415C37.5842 30.4819 37.7083 29.8611 38.1679 29.5547L39.832 28.4453ZM27.2366 40.0563C27.5846 39.406 28.2623 39 28.9999 39H43.9999C44.5522 39 44.9999 39.4477 44.9999 40V42C44.9999 42.5523 44.5522 43 43.9999 43H32.7369L34.1093 45.0585C34.4157 45.5181 34.2915 46.1389 33.832 46.4453L32.1679 47.5547C31.7083 47.8611 31.0875 47.7369 30.7811 47.2774L27.3358 42.1094C26.9267 41.4957 26.8885 40.7066 27.2366 40.0563Z"
    fill="black" />
</svg>