<?xml version="1.0" encoding="UTF-8"?>
<svg width="17px" height="17px" viewBox="0 0 17 17" version="1.1" xmlns="http://www.w3.org/2000/svg" xmlns:xlink="http://www.w3.org/1999/xlink">
    <title>WiFi</title>
    <g id="WiFi" stroke="none" stroke-width="1" fill="none" fill-rule="evenodd">
        <g transform="translate(1.000000, 0.700000)">
            <g id="WIFI" fill-rule="nonzero">
                <rect id="矩形" fill="#000000" opacity="0" x="0" y="0" width="14.4" height="14.4"></rect>
                <path d="M-1.70530257e-13,3.9617 L1.3095,5.3504 C4.5621,1.8989 9.8379,1.8989 13.0905,5.3504 L14.4,3.9617 C10.4265,-0.2539 3.9798,-0.2539 -1.70530257e-13,3.9617 Z M5.2362,9.5165 L7.2,11.6 L9.1638,9.5165 C8.0838,8.3645 6.3225,8.3645 5.2362,9.5165 L5.2362,9.5165 Z M2.619,6.74 L3.9285,8.1287 C5.7348,6.2117 8.667,6.2117 10.4733,8.1287 L11.7819,6.74 C9.2556,4.0598 5.1516,4.0598 2.6181,6.74 L2.619,6.74 Z" id="形状" fill="currentColor"></path>
            </g>
            <text id="CTFE" font-family="ToppanBunkyuMidashiGothicStdN-ExtraBold, Toppan Bunkyu Midashi Gothic" font-size="3" font-weight="400" fill="currentColor">
                <tspan x="1.9" y="15">Creative</tspan>
            </text>
        </g>
    </g>
</svg>