<?xml version="1.0" encoding="UTF-8"?>
<svg width="163px" height="163px" viewBox="0 0 163 163" version="1.1" xmlns="http://www.w3.org/2000/svg" xmlns:xlink="http://www.w3.org/1999/xlink">
    <title>画板</title>
    <defs>
        <linearGradient x1="50%" y1="5.14726747%" x2="50%" y2="100%" id="linearGradient-1">
            <stop stop-color="#000000" offset="0%"></stop>
            <stop stop-color="#000000" stop-opacity="0.649596741" offset="74.7141706%"></stop>
            <stop stop-color="#000000" stop-opacity="0.198564009" offset="100%"></stop>
        </linearGradient>
    </defs>
    <g id="画板" stroke="none" stroke-width="1" fill="none" fill-rule="evenodd">
        <g id="编组" transform="translate(35.503906, 19.744141)" fill-rule="nonzero">
            <path d="M22.3261719,75.7832031 C26.249349,75.7832031 29.6559245,75.1767578 32.5458984,73.9638672 C35.4358724,72.7509766 37.7643229,70.9690755 39.53125,68.6181641 C41.2981771,66.2672526 42.3613281,63.976237 42.7207031,61.7451172 C43.0800781,59.5139974 43.2597656,55.6432292 43.2597656,50.1328125 L43.2597656,1.52734375 L24.3476562,1.52734375 L24.3476562,55.1191406 C24.3476562,58.7428385 24.1754557,61.0413411 23.8310547,62.0146484 C23.4866536,62.9879557 22.7154948,63.4746094 21.5175781,63.4746094 C20.469401,63.4746094 19.773112,63.0328776 19.4287109,62.1494141 C19.0843099,61.2659505 18.9121094,59.2369792 18.9121094,56.0625 L18.9121094,1.52734375 L0,1.52734375 L0,44.5625 C0,52.7682292 0.149739583,58.1513672 0.44921875,60.7119141 C0.748697917,63.2724609 1.72200521,65.7057292 3.36914062,68.0117188 C5.01627604,70.3177083 7.50195312,72.1894531 10.8261719,73.6269531 C14.1503906,75.0644531 17.983724,75.7832031 22.3261719,75.7832031 Z M71.2460938,75.7832031 C75.8580729,75.7832031 79.9010417,74.9521484 83.375,73.2900391 C86.8489583,71.6279297 89.1923828,69.5690104 90.4052734,67.1132812 C91.6181641,64.6575521 92.2246094,60.8391927 92.2246094,55.6582031 C92.2246094,48.530599 91.1315104,43.3645833 88.9453125,40.1601562 C86.7591146,36.9557292 81.4583333,32.8528646 73.0429688,27.8515625 C70.1080729,26.1145833 68.3261719,24.6321615 67.6972656,23.4042969 C67.0384115,22.1764323 66.7089844,20.3496094 66.7089844,17.9238281 C66.7089844,16.0371094 67.0009766,14.6295573 67.5849609,13.7011719 C68.1689453,12.7727865 69.0299479,12.3085938 70.1679688,12.3085938 C71.2161458,12.3085938 71.9648438,12.6529948 72.4140625,13.3417969 C72.8632812,14.030599 73.0878906,15.6328125 73.0878906,18.1484375 L73.0878906,18.1484375 L73.0878906,23.5390625 L90.6523438,23.5390625 L90.6523438,20.6640625 C90.6523438,14.8841146 90.0908203,10.788737 88.9677734,8.37792969 C87.8447266,5.9671224 85.5537109,3.96809896 82.0947266,2.38085938 C78.6357422,0.793619792 74.4505208,0 69.5390625,0 C65.046875,0 61.2135417,0.726236979 58.0390625,2.17871094 C54.8645833,3.6311849 52.5660807,5.64518229 51.1435547,8.22070312 C49.7210286,10.796224 49.0097656,14.8691406 49.0097656,20.4394531 C49.0097656,24.3027344 49.5113932,27.4772135 50.5146484,29.9628906 C51.5179036,32.4485677 52.7832031,34.3951823 54.3105469,35.8027344 C55.8378906,37.2102865 58.952474,39.4713542 63.6542969,42.5859375 C68.3561198,45.6705729 71.3059896,47.8717448 72.5039062,49.1894531 C73.671875,50.5071615 74.2558594,53.3072917 74.2558594,57.5898438 C74.2558594,59.5364583 73.9488932,61.0039062 73.3349609,61.9921875 C72.7210286,62.9804688 71.7851562,63.4746094 70.5273438,63.4746094 C69.2695312,63.4746094 68.3935547,63.0852865 67.8994141,62.3066406 C67.4052734,61.5279948 67.1582031,59.7760417 67.1582031,57.0507812 L67.1582031,57.0507812 L67.1582031,48.2011719 L49.59375,48.2011719 L49.59375,52.9628906 C49.59375,58.4134115 50.1477865,62.6210937 51.2558594,65.5859375 C52.3639323,68.5507812 54.7073568,70.9915365 58.2861328,72.9082031 C61.8649089,74.8248698 66.1848958,75.7832031 71.2460938,75.7832031 Z" id="US" fill="currentColor"></path>
            <path d="M10.8251953,119.255859 L10.8251953,101.433594 C12.2412109,101.433594 13.1160482,101.685872 13.449707,102.19043 C13.7833659,102.694987 13.9501953,104.005208 13.9501953,106.121094 L13.9501953,106.121094 L13.9501953,119.255859 L23.4960938,119.255859 L23.4960938,108.831055 C23.4960938,105.640951 23.4106445,103.691895 23.2397461,102.983887 C23.0688477,102.275879 22.6334635,101.498698 21.9335938,100.652344 C21.233724,99.8059896 19.8665365,99.1305339 17.8320312,98.6259766 C20.078125,98.414388 21.5836589,97.7796224 22.3486328,96.7216797 C23.1136068,95.663737 23.4960938,93.5966797 23.4960938,90.5205078 C23.4960938,87.1513672 22.9549154,84.6977539 21.8725586,83.159668 C20.7902018,81.621582 19.3904622,80.6653646 17.6733398,80.2910156 C15.9562174,79.9166667 12.672526,79.7294922 7.82226562,79.7294922 L7.82226562,79.7294922 L0.546875,79.7294922 L0.546875,119.255859 L10.8251953,119.255859 Z M10.8251953,95.28125 L10.8251953,86.4921875 C12.0133464,86.4921875 12.8312174,86.6875 13.2788086,87.078125 C13.7263997,87.46875 13.9501953,88.2906901 13.9501953,89.5439453 L13.9501953,89.5439453 L13.9501953,91.7167969 C13.9501953,93.4583333 13.7182617,94.487793 13.2543945,94.8051758 C12.7905273,95.1225586 11.9807943,95.28125 10.8251953,95.28125 L10.8251953,95.28125 Z M38.2910156,119.841797 C40.2441406,119.841797 41.9734701,119.561035 43.4790039,118.999512 C44.9845378,118.437988 46.2174479,117.56722 47.1777344,116.387207 C48.1380208,115.207194 48.7646484,113.937663 49.0576172,112.578613 C49.3505859,111.219564 49.4970703,109.083333 49.4970703,106.169922 L49.4970703,106.169922 L49.4970703,98.2353516 C49.4970703,95.9404297 49.3383789,94.2314453 49.0209961,93.1083984 C48.7036133,91.9853516 48.1136068,90.8948568 47.2509766,89.8369141 C46.3883464,88.7789714 45.1635742,87.9204102 43.5766602,87.2612305 C41.9897461,86.6020508 40.0895182,86.2724609 37.8759766,86.2724609 C35.2392578,86.2724609 33.0745443,86.7851562 31.3818359,87.8105469 C29.6891276,88.8359375 28.5172526,90.194987 27.8662109,91.8876953 C27.2151693,93.5804036 26.8896484,95.9322917 26.8896484,98.9433594 L26.8896484,98.9433594 L26.8896484,107.244141 C26.8896484,109.994792 27.0686849,112.05778 27.4267578,113.433105 C27.7848307,114.808431 28.3829753,115.980306 29.2211914,116.94873 C30.0594076,117.917155 31.2353516,118.641439 32.7490234,119.121582 C34.2626953,119.601725 36.110026,119.841797 38.2910156,119.841797 Z M38.1933594,114.104492 C37.6236979,114.104492 37.2412109,113.872559 37.0458984,113.408691 C36.8505859,112.944824 36.7529297,111.947917 36.7529297,110.417969 L36.7529297,110.417969 L36.7529297,95.7939453 C36.7529297,94.1337891 36.8505859,93.0880534 37.0458984,92.6567383 C37.2412109,92.2254232 37.6318359,92.0097656 38.2177734,92.0097656 C38.8037109,92.0097656 39.1861979,92.2254232 39.3652344,92.6567383 C39.5442708,93.0880534 39.6337891,94.1337891 39.6337891,95.7939453 L39.6337891,95.7939453 L39.6337891,110.735352 C39.6337891,112.135091 39.5402018,113.046549 39.3530273,113.469727 C39.1658529,113.892904 38.7792969,114.104492 38.1933594,114.104492 Z M68.3447266,119.255859 C69.8421224,108.757812 70.7942708,101.856771 71.2011719,98.5527344 C72.0963542,106.283854 73.1298828,113.184896 74.3017578,119.255859 L74.3017578,119.255859 L87.1435547,119.255859 L91.7089844,79.7294922 L81.7236328,79.7294922 C80.3889974,88.8766276 79.436849,98.2272135 78.8671875,107.78125 L78.8671875,107.78125 L77.7441406,92.7666016 C77.1419271,85.2307943 76.7675781,80.8850911 76.6210938,79.7294922 L76.6210938,79.7294922 L65.9277344,79.7294922 C64.4140625,90.9111328 63.4700521,99.9443359 63.0957031,106.829102 L63.0957031,106.829102 L62.0214844,93.5234375 L60.9716797,79.7294922 L50.9863281,79.7294922 L55.5761719,119.255859 L68.3447266,119.255859 Z" id="RoW" fill="#000000"></path>
        </g>
    </g>
</svg>
